# xmcd
#
# Track frame offsets: 
#        150
#        22679
#        43879
#        68676
#        90701
#        112889
#        133091
#        153036
#        179174
#        197894
#
# Disc length: 2917 seconds
#
# Revision: 2
# Processed by: cddbd v1.5.2PL0 Copyright (c) Steve Scherf et al.
# Submitted via: ExactAudioCopy v1.0b3
#
DISCID=800b630a
DTITLE=Giao Linh, Tuan Vu - Em Sap Ve Chua
DYEAR=1992
DGENRE=
TTITLE0=Giao Linh - La vang khoc la xanh roi
TTITLE1=Tuan Vu - Mua hoa anh dao
TTITLE2=Giao Linh - Noi buon hoa phuong
TTITLE3=Gio cuon may troi
TTITLE4=Giao Linh - Cho xin song lai
TTITLE5=Giao Linh - Hoa cai mai toc
TTITLE6=Tuan Vu - Xin goi nhau la co nhan
TTITLE7=Giao Linh - Quan con me
TTITLE8=Neu dung dang do
TTITLE9=Giao Linh - Em sap ve chua
EXTD=
EXTT0=
EXTT1=
EXTT2=
EXTT3=
EXTT4=
EXTT5=
EXTT6=
EXTT7=
EXTT8=
EXTT9=
PLAYORDER=
